<svg xmlns="http://www.w3.org/2000/svg" viewBox="0 0 110.21 161.25"><defs><style>.cls-1{fill:#fff;}.cls-2{fill:#68c945;}.cls-3{fill:#242c3c;}.cls-4{fill:#00e8de;}</style></defs><title>Asset 1</title><g id="Layer_2" data-name="Layer 2"><g id="Layer_1-2" data-name="Layer 1"><polygon class="cls-1" points="110.21 161.25 0 161.25 0 4.59 88.73 4.59 110.21 4.59 110.21 161.25"/><path class="cls-2" d="M14.38,29.71a1,1,0,0,1-1-1V4.78a1,1,0,0,1,2.08,0V28.67A1,1,0,0,1,14.38,29.71Z"/><path class="cls-2" d="M7.83,29.71a1,1,0,0,1-1-1V11.55a1,1,0,0,1,2.08,0V28.67A1,1,0,0,1,7.83,29.71Z"/><path class="cls-2" d="M14.38,7.13a1,1,0,0,1-1-1V4.78a2.85,2.85,0,0,0-3-2.71A3,3,0,0,0,7.56,3.89a1,1,0,0,1-1.94-.75A5.06,5.06,0,0,1,10.37,0a4.93,4.93,0,0,1,5.06,4.78v1.3A1,1,0,0,1,14.38,7.13Z"/><path class="cls-2" d="M11.1,32.77a4.22,4.22,0,0,1-4.32-4.1,1,1,0,0,1,2.08,0,2.14,2.14,0,0,0,2.24,2,2.14,2.14,0,0,0,2.24-2,1,1,0,0,1,2.08,0A4.22,4.22,0,0,1,11.1,32.77Z"/><rect class="cls-3" x="15.78" y="92.94" width="75.17" height="5.2"/><rect class="cls-3" x="15.78" y="107.04" width="75.17" height="5.2"/><rect class="cls-3" x="15.78" y="121.13" width="75.14" height="5.2"/><rect class="cls-3" x="15.78" y="78.85" width="74.18" height="5.2"/><circle class="cls-4" cx="55.11" cy="40.86" r="23.79"/><path class="cls-3" d="M65.58,45.95a11.05,11.05,0,0,1-4.29-1.69c-1.64-1.2-1.38-1.84,0-4.36a19.4,19.4,0,0,0,2.88-10c0-7.35-4.74-10-8.81-10h-.5c-4.06,0-8.8,2.61-8.8,10a19.41,19.41,0,0,0,2.88,10c1.37,2.52,1.63,3.16,0,4.36a11,11,0,0,1-4.29,1.69c-2.93.68-6,1.39-6,8a1,1,0,0,0,1,1H70.54a1,1,0,0,0,1-1C71.54,47.33,68.51,46.63,65.58,45.95Z"/></g></g></svg>