<svg xmlns="http://www.w3.org/2000/svg" viewBox="0 0 173.51 182.23"><defs><style>.cls-1{fill:#00d646;}.cls-2{fill:#fff;}</style></defs><title>Asset 1</title><g id="Layer_2" data-name="Layer 2"><g id="Layer_1-2" data-name="Layer 1"><path class="cls-1" d="M.41,38,0,38c.25.72.55,1.42.74,2.16Q3,49.4,5.3,58.65l6.41,26q3.19,12.92,6.38,25.83,2.81,11.34,5.66,22.68a2.69,2.69,0,0,0,1,1.39c1.77,1.3,3.61,2.51,5.42,3.76l31.76,22,11.75,8.1,18.75,13c.49.34.95.71,1.23.92a13.21,13.21,0,0,1,1.36-1.3q15.54-10.8,31.09-21.58,23.27-16.14,46.55-32.28a1.65,1.65,0,0,0,.89-1.64c-.26-3.67-.47-7.34-.69-11q-.89-15-1.76-30T169.3,54.47q-.82-13.88-1.63-27.76a8.87,8.87,0,0,1,.23-1.65,2.09,2.09,0,0,0-.62-.4c-1.45-.42-2.92-.74-4.36-1.18Q125.46,11.84,88,.15a3,3,0,0,0-2.27.17Q62,10.93,38.15,21.52,20.09,29.55,2,37.58A12.09,12.09,0,0,1,.41,38Z"/><path class="cls-1" d="M.41,38A12.09,12.09,0,0,0,2,37.58q18.06-8,36.11-16.06Q61.95,10.92,85.74.32A3,3,0,0,1,88,.15q37.44,11.7,74.91,23.33c1.44.45,2.91.77,4.36,1.18a2.09,2.09,0,0,1,.62.4,8.87,8.87,0,0,0-.23,1.65q.8,13.88,1.63,27.76.88,15,1.75,29.92t1.76,30c.22,3.67.43,7.34.69,11a1.65,1.65,0,0,1-.89,1.64q-23.29,16.12-46.55,32.28Q110.52,170.13,95,180.93a13.21,13.21,0,0,0-1.36,1.3c-.28-.21-.74-.58-1.23-.92l-18.75-13-11.75-8.1-31.76-22c-1.81-1.25-3.65-2.46-5.42-3.76a2.69,2.69,0,0,1-1-1.39q-2.87-11.33-5.66-22.68-3.2-12.92-6.38-25.83l-6.41-26Q3,49.4.74,40.15C.55,39.41.25,38.71,0,38Zm1.27,1.58c.45,1.9.83,3.55,1.24,5.2q6.17,24.9,12.35,49.8,4.66,18.79,9.27,37.6a3.07,3.07,0,0,0,1.39,1.94q14.54,10,29,20,18.31,12.65,36.6,25.32c.28.19.58.36,1,.64-.05-.54-.06-.88-.12-1.22q-3.34-19.69-6.7-39.38-3.32-19.51-6.64-39c-1.36-8-2.78-15.92-4.09-23.89a3,3,0,0,0-1.91-2.53q-32-15.4-64.05-30.89Zm148.75-4.79c.12.67.23,1.13.28,1.59.29,3.26.55,6.53.85,9.79q1.62,17.79,3.27,35.58a2.19,2.19,0,0,1-1.21,2.41q-26.52,15-53,30.09c-1.36.77-1.81.54-2-1q-1.3-8.66-2.62-17.31c-.85-5.61-1.67-11.23-2.57-16.83-.67-4.18-1.46-8.33-2.2-12.54.12,0,0,0,0,0-4.93,2.63-9.87,5.25-14.77,7.93A1.4,1.4,0,0,0,76,75.74c.32,2.3.71,4.58,1.1,6.87q3.32,19.57,6.66,39.14,2.53,14.84,5.07,29.68Q91.16,165.2,93.54,179c.08.45.16.9.26,1.49,4.77-3.3,9.4-6.49,14-9.73a1.51,1.51,0,0,0,.36-1.21c-.28-2.22-.64-4.43-1-6.64-1.52-10.12-3-20.24-4.57-30.35a1.83,1.83,0,0,1,1-2.2c4.8-2.71,9.56-5.47,14.34-8.21l37.3-21.37c1.15-.66,1.66-.48,1.79.69q1.17,10.91,2.31,21.81c.38,3.56.77,7.13,1.15,10.74a1.87,1.87,0,0,0,.45-.13c3.64-2.52,7.3-5,10.91-7.6a1.74,1.74,0,0,0,.51-1.31c-.12-2.83-.31-5.67-.48-8.5q-.9-15.08-1.79-30.16-.82-13.94-1.62-27.88-.83-14.3-1.68-28.6c-.07-1.16-.17-2.32-.27-3.62ZM90.71,32c-.45.54-.71,1.1-1.15,1.35Q75.89,41.21,62.19,49c-.39.22-.76.46-1.28.77l.73.37Q76.6,57.36,91.56,64.57a1.76,1.76,0,0,0,1.37-.11q13.74-7.32,27.45-14.7l38.43-20.58,6.83-3.69c-.58-.22-.94-.37-1.32-.48q-30.6-9.52-61.2-19.06a3.59,3.59,0,0,0-2.92.21Q69,21.31,37.77,36.34c-.91.44-1.81.9-2.89,1.44,4.34,1.94,8.47,3.77,12.57,5.65a2.34,2.34,0,0,0,2.33-.06q14.56-7.69,29.17-15.29a2,2,0,0,1,1.42-.18C83.67,29.18,87,30.53,90.71,32Zm58.9,3.29c-.59.3-1.06.52-1.52.76Q120.7,50.76,93.3,65.43A1.28,1.28,0,0,0,92.47,67c.72,4.5,1.38,9,2.06,13.51q1.91,12.5,3.84,25c.42,2.67.93,5.32,1.41,8,.21-.1.47-.2.7-.33q26.25-14.9,52.5-29.78a1.44,1.44,0,0,0,.85-1.61c-.41-4.18-.78-8.36-1.16-12.54q-1-10.63-1.91-21.25C150.39,43.85,150,39.67,149.61,35.32Zm-60.54-2.8c-.47-.22-.78-.38-1.1-.51-2.3-.92-4.62-1.79-6.89-2.79a2.63,2.63,0,0,0-2.56.16c-9.53,5-19.09,10-28.63,15a2.67,2.67,0,0,1-2.59.06C43,42.52,38.69,40.63,34.4,38.68c-.35-.16-.8-.6-.8-.9s.46-.72.82-.9q28-13.54,56-27l9.72-4.71c-.42-.19-.65-.32-.9-.4-3.47-1.09-7-2.12-10.4-3.27a4.63,4.63,0,0,0-3.64.21Q45.85,19.24,6.5,36.71c-1.39.62-2.77,1.26-4.34,2l10.49,5.06Q43.47,58.63,74.28,73.54a1.81,1.81,0,0,0,1.88,0c2.69-1.48,5.41-2.91,8.12-4.36L91,65.47,59.26,50.08l-.11-.45C69,43.85,79,38.33,89.07,32.51Zm20.31,137.08c.33-.21.74-.45,1.12-.71q24.11-16.72,48.23-33.43a1.52,1.52,0,0,0,.79-1.64c-1-8.86-1.9-17.72-2.83-26.58-.2-1.85-.41-3.71-.63-5.73-.53.27-.91.45-1.28.66L125,119.26q-10.23,5.87-20.48,11.71a1.4,1.4,0,0,0-.87,1.78c.29,1.28.38,2.61.58,3.91,1.23,8.18,2.45,16.36,3.72,24.54C108.34,164,108.88,166.75,109.38,169.59Z"/><path class="cls-2" d="M151.12,33.65l16.28-8.79c.1,1.32.2,2.5.28,3.69q.88,14.59,1.75,29.17.85,14.22,1.68,28.44.92,15.38,1.87,30.76c.18,2.89.38,5.78.5,8.67a1.78,1.78,0,0,1-.52,1.34c-3.64,2.61-7.33,5.17-11,7.73a1.87,1.87,0,0,1-.45.13c-.4-3.68-.8-7.32-1.18-11q-1.19-11.13-2.38-22.25c-.13-1.19-.64-1.38-1.81-.71L118.5,122.6c-4.82,2.79-9.63,5.6-14.47,8.35a1.87,1.87,0,0,0-1,2.24c1.59,10.32,3.12,20.64,4.67,31,.34,2.26.71,4.51,1,6.78a1.55,1.55,0,0,1-.37,1.24c-4.63,3.3-9.3,6.54-14.11,9.9-.11-.6-.19-1.06-.27-1.52q-2.42-14.05-4.83-28.1-2.59-15.14-5.18-30.28-3.4-20-6.79-39.93c-.4-2.33-1.07-5.53-1.4-7.87a1,1,0,0,1,.41-1c4.95-2.72,10-5.33,15-8,.06,0,.32.6.2.6.76,4.29,1.56,8.53,2.24,12.79.92,5.72,1.75,11.44,2.62,17.17q1.34,8.83,2.67,17.66c.23,1.55.69,1.79,2.06,1Q127.67,99.29,154.42,84a2.23,2.23,0,0,0,1.22-2.46q-1.71-18.14-3.37-36.29c-.31-3.33-.58-6.66-.88-10C151.35,34.8,151.24,34.33,151.12,33.65Z"/><path class="cls-2" d="M89.15,32C79,37.86,68.78,43.46,58.76,49.32l.11.46,32.27,15.6-6.87,3.71C81.52,70.56,78.76,72,76,73.51c-.07.63.22,1.1-1.91,0Q42.83,58.44,11.53,43.38L.88,38.25c1.6-.73,3-1.38,4.41-2Q45.25,18.49,85.2.71A4.71,4.71,0,0,1,88.89.49c3.5,1.16,7,2.21,10.56,3.31.25.08.49.21.92.4L90.49,9Q62.07,22.69,33.65,36.4c-.36.17-.82.59-.83.91s.45.75.81.91c4.36,2,8.75,3.89,13.11,5.86A2.72,2.72,0,0,0,49.36,44C59,38.93,68.76,33.88,78.44,28.79a2.68,2.68,0,0,1,2.6-.16c2.3,1,4.66,1.89,7,2.83C88.36,31.58,88.67,31.74,89.15,32Z"/><path class="cls-1" d="M1.68,39.63,9.11,43.2q32,15.46,64.05,30.89a3,3,0,0,1,1.91,2.53c1.31,8,2.73,15.92,4.09,23.89q3.33,19.51,6.64,39,3.35,19.69,6.7,39.38c.06.33.07.68.12,1.22-.47-.28-.77-.45-1-.64Q73.28,166.84,55,154.17q-14.51-10-29-20a3.07,3.07,0,0,1-1.39-1.94q-4.59-18.81-9.27-37.6Q9.09,69.73,2.91,44.83C2.51,43.18,2.13,41.53,1.68,39.63Z"/><path class="cls-1" d="M90.71,32c-3.74-1.5-7-2.85-10.35-4.13a2,2,0,0,0-1.42.18q-14.6,7.61-29.17,15.29a2.34,2.34,0,0,1-2.33.06c-4.1-1.88-8.23-3.71-12.57-5.65,1.08-.54,2-1,2.89-1.44Q69,21.27,100.2,6.16a3.59,3.59,0,0,1,2.92-.21Q133.72,15.5,164.32,25c.37.12.73.27,1.32.48l-6.83,3.69L120.38,49.76q-13.72,7.35-27.45,14.7a1.76,1.76,0,0,1-1.37.11q-15-7.19-29.91-14.46l-.73-.37c.51-.31.89-.55,1.28-.77q13.69-7.79,27.37-15.6C90,33.13,90.26,32.57,90.71,32Z"/><path class="cls-1" d="M149.61,35.32c.4,4.36.78,8.53,1.16,12.71q1,10.63,1.91,21.25c.38,4.18.75,8.36,1.16,12.54a1.44,1.44,0,0,1-.85,1.61q-26.26,14.87-52.5,29.78c-.23.13-.49.23-.7.33-.48-2.72-1-5.37-1.41-8q-1.95-12.5-3.84-25c-.69-4.5-1.34-9-2.06-13.51a1.28,1.28,0,0,1,.83-1.56q27.41-14.65,54.79-29.35C148.55,35.83,149,35.61,149.61,35.32Z"/><path class="cls-1" d="M109.38,169.59c-.5-2.84-1-5.62-1.47-8.41-1.26-8.18-2.48-16.36-3.72-24.54-.2-1.3-.29-2.63-.58-3.91a1.4,1.4,0,0,1,.87-1.78q10.26-5.82,20.48-11.71l29.81-17.1c.37-.21.75-.39,1.28-.66.22,2,.43,3.87.63,5.73.94,8.86,1.86,17.72,2.83,26.58a1.52,1.52,0,0,1-.79,1.64q-24.12,16.7-48.23,33.43C110.12,169.14,109.72,169.38,109.38,169.59Z"/></g></g></svg>